<?xml version="1.0" encoding="utf-8"?>
<!-- Generator: Adobe Illustrator 24.2.1, SVG Export Plug-In . SVG Version: 6.00 Build 0)  -->
<svg version="1.1" id="Layer_1" xmlns="http://www.w3.org/2000/svg" xmlns:xlink="http://www.w3.org/1999/xlink" x="0px" y="0px"
	 viewBox="0 0 80 80" style="enable-background:new 0 0 80 80;" xml:space="preserve">
<path fill="white" d="M79.2,39.8c-3.2-0.6-6.4-3.4-8.6-7.2c-2.7-4.9-7.5-8-13-8.6c-0.1-6.1-3.4-11.6-8.7-14.6c-3.3-1.8-6.4-5.6-7.2-8.7
	c-0.1-0.5-0.5-0.8-1-0.8c-0.5,0-0.9,0.3-1,0.8c-0.6,3.2-3.4,6.4-7.2,8.6c-4.9,2.7-8,7.5-8.6,13c-6,0.1-11.6,3.4-14.6,8.7
	c-1.8,3.3-5.6,6.4-8.7,7.2c-0.5,0.1-0.8,0.5-0.8,1c0,0.5,0.3,0.9,0.8,1c3.2,0.6,6.4,3.4,8.6,7.2c2.7,4.9,7.5,8,13,8.6
	c0.1,6.1,3.4,11.6,8.7,14.6c3.3,1.8,6.4,5.6,7.2,8.7c0.1,0.4,0.5,0.8,1,0.8c0,0,0,0,0,0c0.5,0,0.9-0.3,1-0.8
	c0.6-3.2,3.4-6.4,7.2-8.6c4.9-2.7,8-7.5,8.6-13c6-0.1,11.6-3.4,14.6-8.7c1.8-3.3,5.6-6.4,8.7-7.2c0.5-0.1,0.8-0.5,0.8-1
	C80,40.3,79.6,39.9,79.2,39.8z M54.1,55.5c-3.4-0.4-6.6-2-9-4.5c-2.6-2.7-4-6.2-4.1-9.9c7.2,0.9,12.9,6.9,13.1,14.3
	C54.1,55.4,54.1,55.5,54.1,55.5z M25.9,24.5c3.4,0.4,6.6,2,9,4.5c2.6,2.7,4,6.2,4.1,9.9c-7.2-0.9-12.9-6.9-13.1-14.3
	C25.9,24.5,25.9,24.5,25.9,24.5z M33.5,11.1c3.3-1.9,5.9-4.5,7.3-7.3c1.6,3.1,4.6,5.9,7.1,7.3c4.6,2.6,7.6,7.4,7.6,12.7
	c-0.1,0-0.2,0-0.3,0c-6.8,0.2-12.6,4.5-15.1,10.4c-0.8-2.5-2.1-4.8-3.9-6.7c-2.8-2.9-6.4-4.7-10.4-5.1
	C26.5,17.7,29.3,13.5,33.5,11.1z M55.5,25.9c-0.4,3.4-1.9,6.6-4.5,9c-2.7,2.6-6.2,4-9.9,4.1c0.9-7.2,6.9-12.9,14.3-13.1
	C55.4,25.9,55.5,25.9,55.5,25.9z M11.1,46.4c-1.9-3.3-4.5-5.9-7.3-7.3c3.1-1.6,5.9-4.6,7.3-7.1c2.6-4.6,7.4-7.6,12.7-7.6
	c0,0.1,0,0.2,0,0.3c0.2,6.8,4.5,12.6,10.4,15.1c-2.5,0.8-4.8,2.1-6.7,3.9c-2.9,2.8-4.7,6.4-5.1,10.4C17.7,53.5,13.5,50.7,11.1,46.4z
	 M38.9,41c-0.9,7.2-6.9,12.9-14.3,13.1c0,0-0.1,0-0.1,0c0.4-3.4,1.9-6.6,4.5-9C31.7,42.5,35.2,41.1,38.9,41z M46.4,68.8
	c-3.3,1.9-5.9,4.5-7.3,7.3c-1.6-3.1-4.6-5.9-7.1-7.3c-4.6-2.6-7.5-7.4-7.6-12.7c0.1,0,0.2,0,0.3,0c6.8-0.2,12.6-4.5,15.1-10.4
	c0.8,2.5,2.1,4.8,3.9,6.7c2.8,2.9,6.4,4.7,10.4,5.1C53.5,62.2,50.7,66.4,46.4,68.8z M68.8,47.9c-2.6,4.6-7.4,7.6-12.7,7.6
	c0-0.1,0-0.2,0-0.3c-0.2-6.8-4.5-12.6-10.4-15.1c2.5-0.8,4.8-2.1,6.7-3.9c2.9-2.8,4.7-6.4,5.1-10.4c4.7,0.5,9,3.3,11.3,7.5
	c1.9,3.3,4.5,5.9,7.3,7.3C73,42.5,70.2,45.4,68.8,47.9z"/>
</svg>
